PathFileType	4	(X/Y/Z)	F:\PHD\Matlab_Output_Files\Esther\Treadmill\TR_3\TR_3.trc
DataRate	CameraRate	NumFrames	NumMarkers	Units	OrigDataRate	OrigDataStartFrame	OrigNumFrames
100.000000	100.000000	10	46	m	100.000000	0	1059
Frame#	Times			LFHD			RFHD			RBHD			C7			T10			CLAV			STRN			LSHO			LELB			LWRA			LWRB			LFIN			RSHO			RELB			RWRA			RWRB			RFIN			LASI			RASI			SACR			RPSI			LPSI			LTHI			LTHI2			LTHI3			LKNE			LTIB			LTIB2			LTIB3			LANK			LHEE			LTOE			LLatFoot			RTHI			RTHI2			RTHI3			RKNE			RTIB			RTIB2			RTIB3			RANK			RHEE			RTOE			RLatFoot			LBHD			RBAK
		X1	Y1	Z1	X2	Y2	Z2	X3	Y3	Z3	X4	Y4	Z4	X5	Y5	Z5	X6	Y6	Z6	X7	Y7	Z7	X8	Y8	Z8	X9	Y9	Z9	X10	Y10	Z10	X11	Y11	Z11	X12	Y12	Z12	X13	Y13	Z13	X14	Y14	Z14	X15	Y15	Z15	X16	Y16	Z16	X17	Y17	Z17	X18	Y18	Z18	X19	Y19	Z19	X20	Y20	Z20	X21	Y21	Z21	X22	Y22	Z22	X23	Y23	Z23	X24	Y24	Z24	X25	Y25	Z25	X26	Y26	Z26	X27	Y27	Z27	X28	Y28	Z28	X29	Y29	Z29	X30	Y30	Z30	X31	Y31	Z31	X32	Y32	Z32	X33	Y33	Z33	X34	Y34	Z34	X35	Y35	Z35	X36	Y36	Z36	X37	Y37	Z37	X38	Y38	Z38	X39	Y39	Z39	X40	Y40	Z40	X41	Y41	Z41	X42	Y42	Z42	X43	Y43	Z43	X44	Y44	Z44	X45	Y45	Z45	X46	Y46	Z46

0	0	0.075442	1.5224	2.5191	0.07391	1.5221	2.6322	-0.10048	1.5416	2.6239	-0.14667	1.38	2.575	-0.21912	1.1259	2.5766	-0.033466	1.3082	2.5786	0.024246	1.1025	2.5849	-0.099389	1.3411	2.4157	-0.16953	1.0246	2.3403	-0.085534	0.78009	2.3553	-0.11771	0.78671	2.3026	-0.095639	0.70437	2.3095	-0.093607	1.3371	2.7342	-0.072176	1.0044	2.8141	0.11908	0.83246	2.7505	0.084916	0.80627	2.8019	0.15343	0.77438	2.7856	0.0070093	0.91409	2.469	-0.014725	0.90208	2.7027	-0.19876	0.91955	2.5698	-0.19945	0.93233	2.612	-0.19507	0.93972	2.529	-0.087905	0.63333	2.4055	0.0090301	0.64136	2.4115	-0.030232	0.57218	2.411	-0.025069	0.44503	2.4305	-0.12542	0.29394	2.4221	-0.030329	0.31201	2.4221	-0.072463	0.23549	2.4169	-0.087781	0.028209	2.4588	-0.13026	0.026799	2.4954	0.029064	0.009219	2.4743	-0.043061	-0.010169	2.4485	0.0043612	0.63793	2.7521	-0.08272	0.59805	2.7264	-0.0079867	0.5558	2.7476	0.0093597	0.42907	2.7351	-0.081561	0.36029	2.7412	-0.13333	0.4086	2.6681	-0.16474	0.33815	2.7146	-0.28862	0.17514	2.6826	-0.31272	0.18599	2.6322	-0.22847	0.073036	2.7046	-0.2874	0.1137	2.707	0	0	0	0	0	0
1	0.01	0.076196	1.5221	2.5185	0.074427	1.522	2.6315	-0.10035	1.5419	2.6227	-0.14634	1.3803	2.5738	-0.2203	1.1269	2.5753	-0.033096	1.3087	2.5787	0.023997	1.103	2.5853	-0.098357	1.3414	2.4152	-0.16224	1.0239	2.3376	-0.071973	0.78053	2.3566	-0.10506	0.78702	2.3005	-0.0811	0.70513	2.3077	-0.094476	1.3374	2.7337	-0.077266	1.0044	2.8133	0.10754	0.82381	2.7538	0.072507	0.80045	2.8062	0.14041	0.76639	2.7919	0.0068692	0.91413	2.4689	-0.016251	0.9032	2.7026	-0.19983	0.92073	2.5682	-0.20024	0.93298	2.6105	-0.19552	0.94043	2.5274	-0.091339	0.63416	2.4051	0.0066333	0.64074	2.4123	-0.033619	0.57199	2.4111	-0.031439	0.44445	2.4302	-0.13279	0.29414	2.4222	-0.038104	0.31187	2.4219	-0.080066	0.23535	2.4171	-0.095973	0.028464	2.459	-0.13887	0.026805	2.4957	0.020814	0.0089963	2.4747	-0.051289	-0.010297	2.4486	0.0064825	0.64036	2.7521	-0.079191	0.59912	2.7252	-0.003955	0.5579	2.7474	0.016548	0.43212	2.7351	-0.073645	0.36322	2.7404	-0.12408	0.40977	2.6652	-0.15613	0.33969	2.7124	-0.277	0.17332	2.6814	-0.30176	0.18364	2.6313	-0.21521	0.075475	2.7047	-0.2742	0.11146	2.7052	-0.092184	1.5401	2.5123	0	0	0
2	0.02	0.076523	1.5218	2.5179	0.074843	1.5219	2.631	-0.10015	1.5423	2.6217	-0.14631	1.3807	2.5731	-0.22032	1.1276	2.5734	-0.033157	1.309	2.5785	0.023549	1.1034	2.5855	-0.097529	1.3417	2.4148	-0.15457	1.0233	2.335	-0.057729	0.78253	2.3558	-0.091829	0.78798	2.2984	-0.065933	0.70712	2.3045	-0.095487	1.3377	2.7331	-0.08219	1.0045	2.8129	0.096717	0.81656	2.759	0.059687	0.79519	2.8108	0.12658	0.75835	2.7984	0.0066615	0.91404	2.4687	-0.018154	0.90408	2.7019	-0.20235	0.92264	2.5679	-0.2011	0.93405	2.6091	-0.19649	0.94105	2.5261	-0.094486	0.6342	2.4046	0.0033735	0.63978	2.4125	-0.037573	0.5714	2.4113	-0.037755	0.44434	2.4294	-0.13985	0.2943	2.4224	-0.044962	0.31157	2.4216	-0.087299	0.23522	2.4166	-0.10458	0.028581	2.4593	-0.14698	0.02625	2.4958	0.012237	0.0092554	2.4748	-0.059582	-0.0098573	2.4486	0.00849	0.64271	2.7525	-0.076111	0.59999	2.7242	-0.0004276	0.56005	2.7473	0.023294	0.43531	2.7353	-0.066072	0.36562	2.7397	-0.1156	0.41009	2.6629	-0.14773	0.34075	2.7109	-0.26472	0.17051	2.6802	-0.29046	0.18069	2.6303	-0.19932	0.072836	2.701	-0.26005	0.10798	2.7033	-0.0915	1.5403	2.5116	0	0	0
3	0.03	0.077178	1.5215	2.5175	0.075301	1.5217	2.6305	-0.099348	1.5426	2.6216	-0.14635	1.3811	2.5724	-0.22035	1.1279	2.572	-0.033506	1.3091	2.578	0.023071	1.1038	2.5857	-0.09675	1.3422	2.4143	-0.14712	1.0229	2.3326	-0.045821	0.78423	2.3544	-0.077956	0.78882	2.2966	-0.050808	0.70893	2.303	-0.096258	1.338	2.7328	-0.08702	1.0047	2.8125	0.085581	0.80938	2.7644	0.046743	0.79023	2.8157	0.11225	0.75038	2.805	0.0064138	0.91377	2.4684	-0.020219	0.90475	2.7009	-0.20168	0.92357	2.5667	-0.20187	0.93513	2.6078	-0.19629	0.94162	2.5249	-0.097853	0.63497	2.4045	0.00014071	0.63904	2.4126	-0.041655	0.57149	2.4113	-0.043751	0.44403	2.4294	-0.14698	0.29462	2.4224	-0.052102	0.31162	2.4215	-0.09464	0.23548	2.4165	-0.11257	0.028712	2.4598	-0.1556	0.026492	2.4962	0.0041304	0.0090559	2.4752	-0.067992	-0.0097534	2.4488	0.010324	0.6448	2.7523	-0.072865	0.60038	2.7233	0.0028839	0.56203	2.7471	0.029624	0.4384	2.7352	-0.058596	0.36745	2.739	-0.10812	0.41011	2.6614	-0.13948	0.34097	2.71	-0.25237	0.16662	2.6792	-0.27802	0.17607	2.6294	-0.18146	0.070151	2.6967	-0.24494	0.10315	2.7014	-0.090487	1.5406	2.5111	0	0	0
4	0.04	0.077676	1.5212	2.5173	0.075698	1.5214	2.6301	-0.098865	1.543	2.6211	-0.14644	1.3814	2.5718	-0.22086	1.1282	2.5705	-0.033802	1.3092	2.5776	0.022665	1.1043	2.5856	-0.096163	1.3426	2.4139	-0.13948	1.0227	2.3306	-0.033322	0.78571	2.3534	-0.064454	0.79024	2.295	-0.035638	0.71102	2.3009	-0.097121	1.338	2.7324	-0.091888	1.005	2.8122	0.074629	0.80307	2.7704	0.033405	0.78552	2.8208	0.097411	0.74304	2.8118	0.0063172	0.91349	2.468	-0.020461	0.90675	2.7008	-0.20188	0.92411	2.5657	-0.20261	0.93595	2.6071	-0.19666	0.94208	2.5239	-0.10148	0.63558	2.4047	-0.0031921	0.63769	2.4129	-0.046072	0.57075	2.411	-0.049473	0.44348	2.4289	-0.15385	0.29492	2.4217	-0.059059	0.31139	2.4216	-0.10241	0.23561	2.4166	-0.12085	0.028735	2.46	-0.16399	0.026458	2.4965	-0.0043321	0.0089074	2.4754	-0.076281	-0.0097741	2.4495	0.012193	0.64689	2.7523	-0.070187	0.6011	2.723	0.006251	0.56418	2.7471	0.035326	0.44134	2.7352	-0.051262	0.36868	2.7389	-0.10096	0.40948	2.6604	-0.13115	0.34023	2.7097	-0.23875	0.16086	2.6778	-0.26497	0.17004	2.6281	-0.16451	0.067899	2.6947	-0.22881	0.097779	2.6994	-0.09025	1.5408	2.5107	-0.22436	1.2541	2.6677
5	0.05	0.078119	1.5208	2.5171	0.076028	1.5212	2.6298	-0.098978	1.5428	2.6203	-0.14645	1.3816	2.5713	-0.22111	1.1285	2.5694	-0.034013	1.3092	2.5774	0.022203	1.1045	2.5854	-0.095577	1.343	2.4136	-0.13166	1.0225	2.3287	-0.023168	0.78754	2.3526	-0.051182	0.79198	2.2938	-0.020271	0.71392	2.2997	-0.098045	1.338	2.7319	-0.096616	1.0049	2.8118	0.061476	0.795	2.7753	0.019709	0.78136	2.8258	0.082102	0.73611	2.8187	0.0057517	0.91272	2.4673	-0.021311	0.90806	2.7003	-0.20241	0.92452	2.5649	-0.20327	0.93657	2.6063	-0.19706	0.9424	2.523	-0.1048	0.63562	2.405	-0.0070789	0.63678	2.4128	-0.050479	0.57067	2.4109	-0.054937	0.44299	2.4286	-0.16059	0.29501	2.4213	-0.065644	0.31094	2.4214	-0.10878	0.23515	2.4167	-0.12912	0.028951	2.4608	-0.1725	0.02689	2.4966	-0.012528	0.0090228	2.4754	-0.084227	-0.0091223	2.4497	0.013774	0.64914	2.7524	-0.067797	0.602	2.7228	0.0092038	0.56635	2.7472	0.040677	0.44405	2.735	-0.043347	0.36885	2.7388	-0.094883	0.40826	2.6608	-0.1227	0.33787	2.7095	-0.22458	0.15479	2.6762	-0.25123	0.16291	2.6265	-0.14661	0.065234	2.6932	-0.21213	0.092054	2.6977	-0.090069	1.541	2.5105	-0.22036	1.2527	2.6667
6	0.06	0.078678	1.5203	2.5169	0.0764	1.521	2.6296	-0.098295	1.543	2.6203	-0.14637	1.3816	2.5708	-0.22165	1.129	2.568	-0.034092	1.3093	2.5773	0.021841	1.1047	2.5856	-0.09521	1.3433	2.4135	-0.12433	1.0225	2.3271	-0.011085	0.78949	2.3518	-0.037723	0.79402	2.2929	-0.0049713	0.71696	2.2983	-0.098576	1.338	2.7317	-0.10136	1.0051	2.8117	0.048579	0.78819	2.7804	0.0059192	0.77771	2.8307	0.06664	0.7295	2.8255	0.0053593	0.91189	2.4667	-0.022396	0.90865	2.6995	-0.20268	0.92471	2.5646	-0.20414	0.93734	2.606	-0.19734	0.94262	2.5226	-0.1082	0.63597	2.4053	-0.010495	0.63588	2.4127	-0.054257	0.56983	2.4113	-0.060216	0.44238	2.4287	-0.16688	0.29505	2.4202	-0.07225	0.31077	2.4214	-0.11549	0.235	2.4164	-0.13718	0.028303	2.4598	-0.18124	0.027268	2.497	-0.021428	0.0089183	2.475	-0.093258	-0.0096841	2.4498	0.015336	0.6512	2.7529	-0.068855	0.60549	2.7241	0.011935	0.56828	2.7474	0.04575	0.4464	2.7347	-0.03563	0.368	2.7387	-0.089633	0.4065	2.6619	-0.11402	0.33412	2.71	-0.20954	0.14771	2.6747	-0.23682	0.1559	2.6242	-0.12787	0.061989	2.6922	-0.19505	0.085406	2.6964	-0.08977	1.541	2.51	-0.21966	1.2522	2.6656
7	0.07	0.079031	1.5199	2.5167	0.076704	1.5206	2.6295	-0.097899	1.5431	2.6202	-0.14631	1.3816	2.5704	-0.22174	1.129	2.567	-0.033706	1.3095	2.5778	0.021218	1.1046	2.5855	-0.094715	1.3435	2.4133	-0.11652	1.0223	2.3265	0.00091541	0.79169	2.3508	-0.024484	0.79648	2.2921	0.0098163	0.71995	2.297	-0.099158	1.3377	2.7314	-0.106	1.0051	2.8115	0.035971	0.78233	2.786	-0.0077796	0.7744	2.8361	0.05071	0.72378	2.8324	0.0050145	0.91103	2.4661	-0.023352	0.90929	2.6987	-0.20309	0.9248	2.5644	-0.20467	0.93773	2.6058	-0.19769	0.94267	2.5223	-0.11165	0.63601	2.4054	-0.014041	0.63452	2.4126	-0.058683	0.56938	2.4109	-0.0659	0.44215	2.4282	-0.17273	0.29526	2.42	-0.078249	0.31059	2.4216	-0.12182	0.23479	2.4164	-0.14581	0.028507	2.4603	-0.18912	0.027235	2.497	-0.029737	0.0089023	2.4755	-0.10171	-0.0095749	2.4499	0.016436	0.65302	2.7533	-0.065254	0.60503	2.7243	0.014517	0.57012	2.7478	0.050341	0.44817	2.7344	-0.027994	0.3662	2.7387	-0.084945	0.40391	2.6638	-0.10548	0.32975	2.7107	-0.19372	0.14003	2.6734	-0.22124	0.14691	2.6227	-0.10888	0.059543	2.6922	-0.17667	0.078673	2.6953	-0.089292	1.5408	2.5098	-0.21898	1.2516	2.6646
8	0.08	0.079163	1.5194	2.5165	0.077016	1.5203	2.6295	-0.097665	1.5429	2.62	-0.14635	1.3815	2.5702	-0.22222	1.1292	2.5659	-0.033775	1.3093	2.5776	0.020493	1.1042	2.5852	-0.094057	1.3436	2.4132	-0.10936	1.0222	2.3254	0.013519	0.7943	2.3506	-0.011665	0.79881	2.2911	0.025055	0.72406	2.2964	-0.099671	1.3373	2.7311	-0.11066	1.0051	2.8114	0.023202	0.77647	2.7916	-0.021795	0.7715	2.841	0.034286	0.71805	2.8391	0.004556	0.90991	2.4654	-0.024006	0.90957	2.6979	-0.2036	0.92478	2.5643	-0.20527	0.93792	2.6056	-0.19824	0.94265	2.5221	-0.11489	0.63601	2.4057	-0.017518	0.63376	2.412	-0.063091	0.56894	2.4109	-0.071284	0.44148	2.4282	-0.17879	0.29543	2.4197	-0.08374	0.31033	2.4222	-0.1278	0.23484	2.4166	-0.15392	0.029123	2.4612	-0.19773	0.027859	2.4975	-0.037915	0.0087379	2.4756	-0.11009	-0.0095646	2.4506	0.018561	0.65468	2.7537	-0.062286	0.60501	2.7244	0.016757	0.57171	2.748	0.054608	0.44968	2.734	-0.020492	0.3635	2.7387	-0.080637	0.40038	2.6661	-0.096913	0.32444	2.7115	-0.17741	0.13195	2.6721	-0.20499	0.13766	2.6212	-0.088141	0.055033	2.6915	-0.1578	0.071762	2.6946	-0.088932	1.5406	2.5096	-0.2184	1.2511	2.6638
9	0.09	0.079157	1.5188	2.5164	0.077252	1.5199	2.6295	-0.09717	1.5431	2.62	-0.14633	1.3813	2.57	-0.22236	1.1289	2.5652	-0.033449	1.3092	2.578	0.020072	1.1039	2.585	-0.093423	1.3437	2.413	-0.10244	1.0224	2.3248	0.025723	0.7973	2.3504	0.0013621	0.80169	2.2911	0.03995	0.72772	2.2959	-0.10004	1.337	2.731	-0.11539	1.0051	2.8114	0.010206	0.77146	2.7972	-0.035558	0.76935	2.8461	0.018241	0.71343	2.846	0.003761	0.90875	2.4646	-0.024826	0.90943	2.6972	-0.20415	0.92473	2.5644	-0.20624	0.93788	2.6056	-0.19885	0.94251	2.5221	-0.11821	0.63605	2.4057	-0.020707	0.63261	2.412	-0.066918	0.56832	2.4107	-0.076406	0.44121	2.4286	-0.18447	0.29544	2.4195	-0.089779	0.30979	2.4224	-0.13403	0.23468	2.4168	-0.16225	0.029233	2.4617	-0.20588	0.027769	2.4978	-0.046418	0.0088521	2.4755	-0.11863	-0.0093661	2.4507	0.018916	0.65628	2.7548	-0.059962	0.60501	2.725	0.018915	0.57318	2.7484	0.058356	0.45089	2.7338	-0.012821	0.3604	2.7388	-0.076272	0.39573	2.6684	-0.088001	0.31851	2.7125	-0.1602	0.12338	2.6715	-0.18809	0.12777	2.6203	-0.067755	0.051113	2.6919	-0.13827	0.064287	2.6942	-0.088535	1.5402	2.5096	-0.21776	1.2503	2.6629
